<svg xmlns="http://www.w3.org/2000/svg" version="1.1" xmlns:xlink="http://www.w3.org/1999/xlink" xmlns:svgjs="http://svgjs.com/svgjs" width="512" height="512" x="0" y="0" viewBox="0 0 512 512" style="enable-background:new 0 0 512 512" xml:space="preserve" class="hovered-paths"><g><path d="m512 245.011719c0-24.15625-7.6875-47.070313-22.226562-66.273438-13.402344-17.695312-32.175782-31.105469-53.132813-38.023437-.636719-36.847656-12.226563-70.699219-32.796875-95.625-24.339844-29.496094-59.5625-45.089844-101.855469-45.089844-31.644531 0-56.996093 7.777344-77.492187 23.78125-18.617188 14.535156-30.1875 33.675781-38.238282 49.71875-10.070312-4.84375-21.191406-7.386719-32.445312-7.386719-40.824219 0-74.125 32.835938-74.945312 73.515625-46.613282 13.601563-78.867188 56.4375-78.867188 105.382813 0 60.53125 49.167969 109.777343 109.605469 109.777343h17.386719l-25.625 44.355469c-6.730469 11.65625-6.734376 25.570313-.007813 37.230469 6.730469 11.660156 18.792969 18.625 32.265625 18.625h244.75c13.472656 0 25.53125-6.964844 32.265625-18.625 6.726563-11.65625 6.726563-25.574219-.007813-37.230469l-25.625-44.355469h17.371094c60.445313 0 109.621094-49.246093 109.621094-109.777343zm-127.34375 176.363281c-.628906 1.089844-2.5 3.625-6.28125 3.625h-244.75c-3.78125 0-5.652344-2.535156-6.28125-3.625-.628906-1.085938-1.882812-3.964844 0-7.222656l122.378906-211.824219c1.886719-3.269531 5.019532-3.621094 6.277344-3.621094s4.390625.351563 6.277344 3.621094l122.378906 211.824219c1.882812 3.257812.628906 6.136718 0 7.222656zm-96.398438-234.054688c-6.734374-11.65625-18.792968-18.613281-32.257812-18.613281s-25.523438 6.957031-32.257812 18.613281l-79.417969 137.46875h-34.71875c-43.894531 0-79.605469-35.785156-79.605469-79.777343 0-36.441407 24.574219-68.214844 59.765625-77.269531 11.621094-2.992188 19.476563-13.359376 19.105469-25.207032-.011719-.457031-.019532-.914062-.019532-1.375 0-24.839844 20.167969-45.046875 44.960938-45.046875 7.703125 0 15.289062 1.980469 21.941406 5.726563 6.125 3.453125 13.480469 4.222656 20.183594 2.125 6.652344-2.085938 12.203125-6.878906 15.230469-13.144532 9.957031-20.617187 19.761719-34 31.789062-43.390624 15.023438-11.730469 34.332031-17.429688 59.03125-17.429688 33.042969 0 60.261719 11.820312 78.71875 34.1875 16.742188 20.285156 25.960938 48.601562 25.960938 79.804688-.011719 11.40625 7.355469 21.253906 18.324219 24.503906 16.125 4.777344 30.636718 14.847656 40.863281 28.355468 10.5625 13.945313 16.144531 30.597657 16.144531 48.160157 0 43.992187-35.71875 79.777343-79.621094 79.777343h-34.703125zm0 0" fill="#000000" data-original="#000000" class="hovered-path"></path><path d="m296.742188 307.246094c-5.855469-5.859375-15.355469-5.863282-21.214844-.007813l-19.527344 19.515625-19.527344-19.515625c-5.859375-5.855469-15.359375-5.851562-21.214844.007813-5.855468 5.859375-5.851562 15.355468.007813 21.214844l19.515625 19.5-19.515625 19.503906c-5.859375 5.855468-5.863281 15.355468-.007813 21.214844 2.929688 2.929687 6.769532 4.394531 10.609376 4.394531 3.835937 0 7.675781-1.464844 10.605468-4.390625l19.527344-19.515625 19.527344 19.515625c2.929687 2.929687 6.765625 4.390625 10.605468 4.390625 3.839844 0 7.679688-1.464844 10.609376-4.394531 5.855468-5.859376 5.851562-15.355469-.007813-21.214844l-19.515625-19.5 19.515625-19.503906c5.859375-5.859376 5.863281-15.355469.007813-21.214844zm0 0" fill="#000000" data-original="#000000" class="hovered-path"></path></g></svg>